<mxfile host="app.diagrams.net" modified="2023-06-27T09:22:25.122Z" agent="Mozilla/5.0 (Windows NT 10.0; Win64; x64) AppleWebKit/537.36 (KHTML, like Gecko) Chrome/114.0.0.0 Safari/537.36" version="21.5.0" etag="JNE3dJmRK_qPi1DcSSsJ" type="github">
  <diagram name="第 1 页" id="3PoZT99JLvgC_yYh0iIf">
    <mxGraphModel>
      <root>
        <mxCell id="0" />
        <mxCell id="1" parent="0" />
      </root>
    </mxGraphModel>
  </diagram>
</mxfile>
